HIERARCHY
ROOT Hips
{
	OFFSET	0.00	0.00	0.00
	CHANNELS 6 Xposition Yposition Zposition Zrotation Xrotation Yrotation
	JOINT LeftUpLeg
	{
		OFFSET	 0.126116	-0.014019	-0.065224
		CHANNELS 3 Zrotation Xrotation Yrotation
		JOINT LeftLeg
		{
			OFFSET	 0.000000	 0.000000	 0.569914
			CHANNELS 3 Zrotation Xrotation Yrotation
			JOINT LeftFoot
			{
				OFFSET	 0.000000	 0.000000	 0.544423
				CHANNELS 3 Zrotation Xrotation Yrotation
				JOINT LeftToeBase
				{
					OFFSET	 0.000000	 0.000000	 0.207117
					CHANNELS 3 Zrotation Xrotation Yrotation
					End Site
					{
						OFFSET	 0.000000	 0.000000	 0.207117
					}
				}
			}
		}
	}
	JOINT RightUpLeg
	{
		OFFSET	-0.124023	-0.008373	-0.065224
		CHANNELS 3 Zrotation Xrotation Yrotation
		JOINT RightLeg
		{
			OFFSET	 0.000000	 0.000000	 0.570047
			CHANNELS 3 Zrotation Xrotation Yrotation
			JOINT RightFoot
			{
				OFFSET	 0.000000	 0.000000	 0.544354
				CHANNELS 3 Zrotation Xrotation Yrotation
				JOINT RightToeBase
				{
					OFFSET	 0.000000	 0.000000	 0.207540
					CHANNELS 3 Zrotation Xrotation Yrotation
					End Site
					{
						OFFSET	 0.000000	 0.000000	 0.207540
					}
				}
			}
		}
	}
	JOINT Spine
	{
		OFFSET	 0.000184	-0.007763	 0.117403
		CHANNELS 3 Zrotation Xrotation Yrotation
		JOINT Spine1
		{
			OFFSET	 0.000000	 0.000000	 0.137269
			CHANNELS 3 Zrotation Xrotation Yrotation
			JOINT Spine2
			{
				OFFSET	 0.000000	 0.000000	 0.156879
				CHANNELS 3 Zrotation Xrotation Yrotation
				JOINT LeftShoulder
				{
					OFFSET	 0.080501	-0.002496	 0.160144
					CHANNELS 3 Zrotation Xrotation Yrotation
					JOINT LeftArm
					{
						OFFSET	 0.000000	 0.000000	 0.164363
						CHANNELS 3 Zrotation Xrotation Yrotation
						JOINT LeftForeArm
						{
							OFFSET	 0.000000	 0.000000	 0.364576
							CHANNELS 3 Zrotation Xrotation Yrotation
							JOINT LeftHand
							{
								OFFSET	 0.000000	 0.000000	 0.360812
								CHANNELS 3 Zrotation Xrotation Yrotation
								JOINT LeftHandIndex1
								{
									OFFSET	 0.000000	 0.000000	 0.086006
									CHANNELS 3 Zrotation Xrotation Yrotation
									JOINT LeftHandIndex2
									{
										OFFSET	 0.000000	 0.000000	 0.047236
										CHANNELS 3 Zrotation Xrotation Yrotation
										JOINT LeftHandIndex3
										{
											OFFSET	-0.004284	-0.000551	 0.038166
											CHANNELS 3 Zrotation Xrotation Yrotation
											End Site
											{
												OFFSET	-0.004284	-0.000551	 0.038166
											}
										}
									}
								}
							}
						}
					}
				}
				JOINT Neck
				{
					OFFSET	 0.000000	 0.000000	 0.176489
					CHANNELS 3 Zrotation Xrotation Yrotation
					JOINT Head
					{
						OFFSET	 0.000000	-0.001747	 0.077940
						CHANNELS 3 Zrotation Xrotation Yrotation
						End Site
						{
							OFFSET	 0.000000	-0.001747	 0.077940
						}
					}
				}
				JOINT RightShoulder
				{
					OFFSET	-0.080363	 0.000306	 0.159706
					CHANNELS 3 Zrotation Xrotation Yrotation
					JOINT RightArm
					{
						OFFSET	 0.000000	 0.000000	 0.164196
						CHANNELS 3 Zrotation Xrotation Yrotation
						JOINT RightForeArm
						{
							OFFSET	 0.000000	 0.000000	 0.365611
							CHANNELS 3 Zrotation Xrotation Yrotation
							JOINT RightHand
							{
								OFFSET	 0.000000	 0.000000	 0.360648
								CHANNELS 3 Zrotation Xrotation Yrotation
								JOINT RightHandIndex1
								{
									OFFSET	 0.000000	 0.000000	 0.069977
									CHANNELS 3 Zrotation Xrotation Yrotation
									JOINT RightHandIndex2
									{
										OFFSET	 0.000000	 0.000000	 0.052305
										CHANNELS 3 Zrotation Xrotation Yrotation
										JOINT RightHandIndex3
										{
											OFFSET	 0.009002	-0.000782	 0.042196
											CHANNELS 3 Zrotation Xrotation Yrotation
											End Site
											{
												OFFSET	 0.009002	-0.000782	 0.042196
											}
										}
									}
								}
							}
						}
					}
				}
			}
		}
	}
}
MOTION
Frames:    9
Frame Time: 0.03333334
-0.033811	 0.232501	 1.082212	 2.272040	 31.998430	-7.450516	 41.760750	-74.691990	-144.900700	 4.749037	-65.846840	 4.715494	 31.698450	 71.745360	-40.450280	-2.385832	 28.452790	-0.000001	 26.440540	-80.233740	-150.693900	-14.430030	-68.916700	-8.672057	-2.758695	 70.923690	 23.807820	 2.384659	 28.388700	-0.000001	 5.547937	 14.140860	 0.911038	-1.884145	 19.025430	 1.695576	-3.057334	 0.048122	 3.111537	-98.866360	 68.383230	 157.429900	 3.897911	-6.655482	-51.349910	-0.160300	-0.711213	-6.097038	-3.685951	-61.601430	 3.929154	-2.027600	 6.559038	 9.033609	-5.188889	 0.308190	 3.541030	-5.234859	 0.342567	 0.430617	-0.132154	 14.390660	-4.870805	-1.906156	-23.426580	-2.007777	 97.278610	 64.423290	-159.924000	-10.490390	 6.076923	 57.971150	-13.223770	-3.582844	 31.361590	-16.247020	-59.022050	-9.623504	 1.803333	 3.979147	-15.098590	 4.898592	 3.004813	-9.310344	 5.224449	 0.395017	 2.014677
-0.029301	 0.232120	 1.108714	 1.812447	 30.289430	-6.499241	 33.832650	-71.164900	-153.174300	 3.945491	-61.985180	 3.852560	 28.784460	 70.663570	-37.210650	-2.385832	 28.452790	-0.000001	 11.871260	-76.390900	-164.468400	-13.320630	-64.682160	-7.398359	-2.253707	 69.674290	 22.850450	 2.384659	 28.388700	-0.000001	-3.269528	 13.427620	 0.894080	-1.808519	 19.103280	 1.787806	-2.043225	-1.384289	 2.237178	-98.009430	 69.425580	 158.548000	 5.177780	-2.411162	-52.616740	 4.182183	-1.688448	-8.706250	-3.306785	-57.185210	 2.016016	-2.027600	 6.559038	 9.033609	-5.188889	 0.308190	 3.541030	-5.234859	 0.342567	 0.430617	-0.756905	 7.848970	-3.377268	-1.089116	-17.039270	-2.162868	 96.885020	 64.158680	-161.175600	-12.358740	 6.637811	 55.515460	-15.391280	-6.565940	 38.514500	-16.371010	-53.875650	-6.072799	 1.803333	 3.979147	-15.098590	 4.898592	 3.004813	-9.310344	 5.224449	 0.395017	 2.014677
-0.023801	 0.230823	 1.138179	 1.354471	 28.156710	-5.260146	 27.648690	-66.734560	-159.932300	 3.494987	-57.619180	 3.304787	 25.915810	 69.543190	-33.925400	-2.385833	 28.452760	 0.000004	 2.495909	-71.268840	-172.970900	-12.721520	-59.805020	-6.557065	-1.353806	 68.423940	 21.577480	 2.384659	 28.388700	-0.000001	-13.234960	 12.634220	 0.788589	-1.848893	 19.472830	 1.885055	-0.904720	-3.458769	 1.348920	-96.143000	 72.350540	 159.824000	 6.881458	 3.776986	-54.796690	 8.922934	-3.116178	-11.371120	-4.127708	-51.001630	-2.358388	-2.027600	 6.559038	 9.033609	-5.188889	 0.308190	 3.541030	-5.234859	 0.342567	 0.430617	-1.199189	-1.006494	-2.263333	-0.080556	-8.536518	-2.290366	 95.996140	 65.530800	-162.343400	-14.637090	 9.646531	 53.880950	-17.676830	-10.903100	 45.855140	-16.638320	-46.748690	-1.791738	 1.803333	 3.979147	-15.098590	 4.898592	 3.004813	-9.310344	 5.224449	 0.395017	 2.014677
-0.018979	 0.227755	 1.169298	 1.060258	 25.515660	-4.027194	 22.649170	-61.345940	-165.549700	 3.526793	-52.742450	 3.140408	 22.254980	 68.265210	-30.005050	-2.385833	 28.452750	 0.000004	-3.565186	-65.001180	-178.015500	-11.262430	-54.420240	-4.980701	-1.413998	 67.235850	 20.616100	 2.384659	 28.388700	-0.000001	-23.114560	 11.885930	 0.795797	-1.847863	 19.907120	 1.869017	 0.275681	-5.950109	 0.671925	-93.201580	 76.704030	 160.962500	 9.397656	 10.833510	-58.478260	 13.736070	-4.900980	-13.846290	-4.450882	-43.543920	-7.578317	-2.027600	 6.559038	 9.033609	-5.188889	 0.308190	 3.541030	-5.234859	 0.342567	 0.430617	-1.611108	-11.728300	-2.535808	 1.139599	 1.633544	-1.838015	 94.540350	 68.392000	-163.798600	-17.338800	 14.021770	 53.647190	-19.107500	-15.965040	 53.094900	-17.066340	-38.744820	 2.500242	 1.803333	 3.979147	-15.098590	 4.898592	 3.004813	-9.310344	 5.224449	 0.395017	 2.014677
-0.015559	 0.222060	 1.194461	 1.540687	 23.693140	-3.329525	 20.008780	-56.847930	-168.375700	 3.635567	-48.366840	 2.976542	 19.871390	 66.999870	-27.205950	-2.385833	 28.452750	 0.000004	-6.810920	-59.866930	 179.904800	-9.559131	-49.816470	-3.374114	-1.086077	 66.061020	 19.098600	 2.384659	 28.388700	-0.000001	-29.803070	 10.665350	 0.448028	-1.968490	 19.820620	 1.743128	 1.186289	-7.984741	 0.022618	-93.835730	 75.400870	 163.092700	 11.363600	 12.788230	-59.257210	 17.365180	-6.419331	-15.528530	-3.077763	-37.031920	-12.101910	-2.027600	 6.559038	 9.033609	-5.188889	 0.308190	 3.541030	-5.234859	 0.342567	 0.430617	-1.666819	-14.511190	-1.135892	 2.035607	 4.279917	-2.626426	 93.824780	 69.523800	-164.926300	-19.366860	 17.145070	 51.906200	-19.346250	-20.090920	 58.837960	-17.591320	-31.768670	 5.867734	 1.803333	 3.979147	-15.098590	 4.898592	 3.004813	-9.310344	 5.224449	 0.395017	 2.014677
-0.013444	 0.214322	 1.218871	 2.046439	 21.847060	-2.631153	 17.473410	-51.996850	-171.099000	 3.527942	-43.757930	 2.730308	 17.020480	 65.573490	-23.867440	-2.385833	 28.452750	 0.000004	-9.503716	-54.324130	 178.465600	-7.965847	-44.956910	-1.993040	-1.067595	 64.725920	 17.660060	 2.384659	 28.388700	-0.000001	-35.337840	 9.130446	 0.315933	-1.956652	 19.333720	 1.588500	 1.951612	-10.012790	-0.374916	-94.431870	 73.686660	 164.984700	 13.663540	 13.818080	-59.345940	 20.811500	-7.947160	-16.960150	-0.829838	-30.252400	-15.031340	-2.027600	 6.559038	 9.033609	-5.188889	 0.308190	 3.541030	-5.234859	 0.342567	 0.430617	-1.811582	-15.303560	-0.975677	 2.988039	 5.283225	-2.476374	 94.012140	 67.221950	-166.703700	-21.201020	 17.854230	 49.246140	-18.810890	-23.945020	 64.317350	-18.282430	-24.568600	 9.275705	 1.803333	 3.979147	-15.098590	 4.898592	 3.004813	-9.310344	 5.224449	 0.395017	 2.014677
-0.012621	 0.205786	 1.238678	 2.572744	 20.001890	-1.692551	 15.480190	-47.476300	-173.593700	 3.416269	-39.900580	 2.460744	 14.793420	 64.461400	-20.957020	-2.385833	 28.452750	 0.000004	-11.714870	-48.835130	 177.254000	-6.530016	-40.509760	-0.898946	-1.223089	 63.908080	 16.413900	 2.384659	 28.388700	-0.000001	-38.979230	 7.638597	 0.077148	-1.897261	 18.539240	 1.247995	 2.573063	-11.651890	-0.695483	-94.823110	 71.735620	 166.855600	 15.679290	 14.190400	-59.446290	 23.873560	-9.323418	-18.076780	 0.901132	-24.051290	-16.203120	-2.027600	 6.559038	 9.033609	-5.188889	 0.308190	 3.541030	-5.234859	 0.342567	 0.430617	-1.856428	-15.031820	-0.671061	 3.737327	 5.524637	-2.497053	 93.916590	 64.826420	-168.633600	-23.039650	 18.361800	 48.159260	-18.468790	-27.121520	 67.877440	-18.459930	-18.568030	 11.589010	 1.803333	 3.979147	-15.098590	 4.898592	 3.004813	-9.310344	 5.224449	 0.395017	 2.014677
-0.011861	 0.196327	 1.254893	 2.954822	 17.695610	-0.840193	 14.242490	-42.497970	-175.641800	 3.177310	-36.251120	 2.126954	 13.147010	 63.821140	-18.428540	-2.385833	 28.452750	 0.000004	-13.098660	-42.933750	 176.765600	-5.141536	-36.073970	 0.002792	-1.351905	 63.307120	 15.025400	 2.384659	 28.388700	-0.000001	-40.511920	 6.421600	-0.109369	-1.992942	 17.358560	 0.829033	 3.111354	-12.353270	-0.754112	-94.749610	 70.691960	 168.486500	 17.108270	 14.847380	-59.908740	 26.382860	-10.421000	-18.873740	 1.087412	-19.892320	-16.821910	-2.027600	 6.559038	 9.033609	-5.188889	 0.308190	 3.541030	-5.234859	 0.342567	 0.430617	-1.878426	-14.074720	-0.671868	 4.260917	 5.302603	-2.500309	 93.548840	 64.102970	-170.003000	-24.680610	 19.966700	 47.620220	-17.986310	-29.874750	 71.023570	-17.606630	-15.094970	 12.950830	 1.803333	 3.979147	-15.098590	 4.898592	 3.004813	-9.310344	 5.224449	 0.395017	 2.014677
-0.010755	 0.182970	 1.269636	 3.028987	 13.945430	-0.504651	 14.083740	-35.294140	-177.076500	 2.636930	-32.063390	 1.622062	 10.705770	 62.937280	-14.642830	-2.385833	 28.452760	 0.000004	-13.475220	-35.476370	 177.695200	-3.749171	-31.505950	 0.730215	-0.671427	 62.245740	 12.426500	 2.384659	 28.388700	-0.000001	-39.637620	 5.658576	-0.017638	-2.129478	 16.206360	 0.887279	 3.561679	-12.145760	-0.558415	-94.431920	 70.166850	 170.192300	 17.917130	 15.364570	-60.862910	 28.715120	-11.337010	-19.477120	-0.515851	-18.572880	-17.857850	-2.027600	 6.559038	 9.033609	-5.188889	 0.308190	 3.541030	-5.234859	 0.342567	 0.430617	-1.983612	-12.089400	-1.155798	 4.682865	 4.305094	-2.287130	 93.142850	 63.095790	-171.542400	-25.877040	 21.101590	 47.017910	-16.958470	-32.293150	 74.542750	-15.192270	-14.014820	 14.061740	 1.803333	 3.979147	-15.098590	 4.898592	 3.004813	-9.310344	 5.224449	 0.395017	 2.014677
